<?xml version="1.0" encoding="UTF-8" standalone="no"?>
<!-- Created with Inkscape (http://www.inkscape.org/) -->

<svg
   width="210mm"
   height="297mm"
   viewBox="0 0 210 297"
   version="1.1"
   id="svg5"
   inkscape:version="1.2.2 (732a01da63, 2022-12-09)"
   sodipodi:docname="LogoHomePage.svg"
   inkscape:export-filename="learnoo.png"
   inkscape:export-xdpi="96"
   inkscape:export-ydpi="96"
   xmlns:inkscape="http://www.inkscape.org/namespaces/inkscape"
   xmlns:sodipodi="http://sodipodi.sourceforge.net/DTD/sodipodi-0.dtd"
   xmlns="http://www.w3.org/2000/svg"
   xmlns:svg="http://www.w3.org/2000/svg">
  <sodipodi:namedview
     id="namedview7"
     pagecolor="#ffffff"
     bordercolor="#000000"
     borderopacity="0.25"
     inkscape:showpageshadow="2"
     inkscape:pageopacity="0.0"
     inkscape:pagecheckerboard="0"
     inkscape:deskcolor="#d1d1d1"
     inkscape:document-units="mm"
     showgrid="false"
     inkscape:zoom="1.0683582"
     inkscape:cx="333.22159"
     inkscape:cy="505.44847"
     inkscape:window-width="1920"
     inkscape:window-height="1046"
     inkscape:window-x="-11"
     inkscape:window-y="-11"
     inkscape:window-maximized="1"
     inkscape:current-layer="layer1" />
  <defs
     id="defs2">
    <inkscape:perspective
       sodipodi:type="inkscape:persp3d"
       inkscape:vp_x="8.9320733 : 83.218882 : 1"
       inkscape:vp_y="0 : 1537.7601 : 0"
       inkscape:vp_z="510.76097 : 83.218882 : 1"
       inkscape:persp3d-origin="259.84652 : 7.0997423 : 1"
       id="perspective1320" />
  </defs>
  <g
     inkscape:label="Layer 1"
     inkscape:groupmode="layer"
     id="layer1">
    <path
       d="M 40.634367,147.79953 H 13.994133 v -36.93418 h 9.525 v 29.79043 h 17.115234 z"
       id="path396"
       style="font-weight:bold;font-size:50.8px;-inkscape-font-specification:'sans-serif Bold';fill:#d6d6d6;stroke:#000000;stroke-width:0.264583;stroke-opacity:0;fill-opacity:1" />
    <path
       d="M 75.370994,137.92726 H 54.728521 q 0.200414,2.64014 2.505154,4.04021 2.329794,1.40007 6.839072,1.40007 2.855876,0 5.536391,-0.82005 2.680516,-0.82003 4.23371,-1.76009 h 1.002063 v 5.78031 q -3.056289,0.98005 -5.761855,1.42008 -2.705567,0.44002 -5.98732,0.44002 -8.467421,0 -12.976698,-3.04016 -4.50928,-3.04016 -4.50928,-8.66045 0,-5.56029 4.258764,-8.80046 4.283814,-3.26017 11.724122,-3.26017 6.864123,0 10.321236,2.78014 3.457114,2.76015 3.457114,7.96042 z m -8.968454,-4.22022 q -0.07515,-2.26011 -1.402886,-3.40017 -1.327732,-1.14006 -4.133505,-1.14006 -2.60536,0 -4.283814,1.08005 -1.678453,1.08005 -1.878865,3.46018 z"
       id="path398"
       style="font-weight:bold;font-size:50.8px;-inkscape-font-specification:'sans-serif Bold';fill:#d6d6d6;fill-opacity:1;stroke:#000000;stroke-width:0.238766;stroke-opacity:0" />
    <path
       d="m 100.55024,132.61878 h -0.794762 q -0.57123,-0.16157 -1.837876,-0.24236 -1.266647,-0.0808 -2.111081,-0.0808 -1.912389,0 -3.377728,0.20195 -1.46534,0.20197 -3.154203,0.68668 v 15.18754 h -8.941049 v -22.68033 h 8.941049 v 3.33237 q 2.955513,-2.06001 5.141103,-2.72648 2.185589,-0.68667 4.023471,-0.68667 0.471884,0 1.067954,0.0202 0.596072,0.0202 1.043122,0.0605 z"
       id="path400"
       style="font-weight:bold;font-size:50.8px;-inkscape-font-specification:'sans-serif Bold';fill:#d6d6d6;fill-opacity:1;stroke:#000000;stroke-width:0.238895;stroke-opacity:0" />
    <path
       d="m 133.51845,148.18409 h -8.98769 V 136.9755 q 0,-1.36838 -0.1738,-2.71663 -0.17379,-1.36837 -0.59586,-2.01231 -0.49656,-0.74456 -1.46485,-1.08666 -0.94345,-0.34208 -2.65658,-0.34208 -1.21657,0 -2.48279,0.32196 -1.24139,0.32198 -2.70624,1.02628 v 16.01803 h -8.93803 V 125.5858 h 8.93803 v 2.49527 q 2.38348,-1.50924 4.56834,-2.31417 2.20967,-0.80492 4.89109,-0.80492 4.51867,0 7.05111,2.13305 2.55727,2.13305 2.55727,6.37904 z"
       id="path402"
       style="font-weight:bold;font-size:50.8px;-inkscape-font-specification:'sans-serif Bold';fill:#d6d6d6;fill-opacity:1;stroke:#000000;stroke-width:0.238422;stroke-opacity:0" />
    <text
       xml:space="preserve"
       style="font-style:italic;font-variant:normal;font-weight:normal;font-stretch:normal;font-size:16.4771px;font-family:sans-serif;-inkscape-font-specification:'sans-serif Italic';fill:#280b0b;fill-opacity:1;stroke:#000000;stroke-width:0.308946;stroke-opacity:0"
       x="143.25914"
       y="151.66487"
       id="text9584"><tspan
         sodipodi:role="line"
         style="font-style:italic;font-variant:normal;font-weight:normal;font-stretch:normal;font-size:16.4771px;font-family:sans-serif;-inkscape-font-specification:'sans-serif Italic';fill:#280b0b;stroke-width:0.308946"
         id="tspan9586"
         x="143.25914"
         y="151.66487" /></text>
    <text
       xml:space="preserve"
       style="font-style:normal;font-variant:normal;font-weight:bold;font-stretch:normal;font-size:37.1476px;font-family:sans-serif;-inkscape-font-specification:'sans-serif Bold';fill:#d6d6d6;stroke:#3b444b;stroke-width:0.193477;stroke-opacity:0;fill-opacity:1"
       x="145.98514"
       y="138.2551"
       id="text229"
       transform="scale(0.93818181,1.0658915)"><tspan
         sodipodi:role="line"
         id="tspan227"
         style="font-style:normal;font-variant:normal;font-weight:bold;font-stretch:normal;font-size:37.1476px;font-family:sans-serif;-inkscape-font-specification:'sans-serif Bold';stroke-width:0.193477;fill:#d6d6d6;fill-opacity:1"
         x="145.98514"
         y="138.2551">o</tspan></text>
    <text
       xml:space="preserve"
       style="font-style:normal;font-variant:normal;font-weight:bold;font-stretch:normal;font-size:55.6614px;font-family:sans-serif;-inkscape-font-specification:'sans-serif Bold';fill:#d6d6d6;stroke:#3b444b;stroke-width:0.289903;stroke-opacity:0;fill-opacity:1"
       x="185.41626"
       y="128.6801"
       id="text330"
       transform="scale(0.87512086,1.1426993)"><tspan
         sodipodi:role="line"
         id="tspan328"
         style="font-style:normal;font-variant:normal;font-weight:bold;font-stretch:normal;font-size:55.6614px;font-family:sans-serif;-inkscape-font-specification:'sans-serif Bold';stroke-width:0.289903;fill:#d6d6d6;fill-opacity:1"
         x="185.41626"
         y="128.6801">o</tspan></text>
  </g>
</svg>
